<svg xmlns="http://www.w3.org/2000/svg" viewBox="0 0 399.78 189.34"><defs><style>.cls-1{fill:#fff;}</style></defs><g id="Layer_2" data-name="Layer 2"><g id="Layer_1-2" data-name="Layer 1"><path class="cls-1" d="M21.28,158.5a53.34,53.34,0,0,0,14.13,2,29.74,29.74,0,0,0,7.71-1,15.56,15.56,0,0,0,6.43-3.43A18.14,18.14,0,0,0,54,149.79a24.28,24.28,0,0,0,1.72-9.86V51.4a5.86,5.86,0,0,1,5.71-5.71h20A5.86,5.86,0,0,1,87.1,51.4v57.12h15.71v31.41H87.1q0,12.85-3.43,22.28a41.39,41.39,0,0,1-9.42,15.42,37,37,0,0,1-14.14,8.85,52.5,52.5,0,0,1-17.56,2.86,81.68,81.68,0,0,1-20.85-2.86A102.91,102.91,0,0,1,0,177.92l8.28-23.71A122.38,122.38,0,0,0,21.28,158.5ZM96.67,111a8.31,8.31,0,0,1,6.14-2.43h27.13V51.4a5.86,5.86,0,0,1,5.71-5.71h20a5.86,5.86,0,0,1,5.71,5.71v57.12h27.13v31.41H102.81a8.29,8.29,0,0,1-8.57-8.56V117.09A8.31,8.31,0,0,1,96.67,111ZM108.81,3.71a18.57,18.57,0,0,1,22.27,0,11.43,11.43,0,0,1,0,18.28,18.57,18.57,0,0,1-22.27,0,11.43,11.43,0,0,1,0-18.28Zm37.12,0a18.58,18.58,0,0,1,22.28,0,11.43,11.43,0,0,1,0,18.28,18.58,18.58,0,0,1-22.28,0,11.42,11.42,0,0,1,0-18.28ZM182.34,111a8.33,8.33,0,0,1,6.14-2.43H209a43.7,43.7,0,0,1-4.85-20.28,42.07,42.07,0,0,1,3.14-16,39.58,39.58,0,0,1,9.14-13.56A45.7,45.7,0,0,1,231,49.26a50.13,50.13,0,0,1,19.42-3.57h28a22.93,22.93,0,0,1,22.85,22.85v65.68a5.86,5.86,0,0,1-5.72,5.71H188.48a8.28,8.28,0,0,1-8.56-8.56V117.09A8.3,8.3,0,0,1,182.34,111Zm58.12-29.27a14.68,14.68,0,0,0-4.86,11.13,15.33,15.33,0,0,0,4.57,11,16,16,0,0,0,12,4.71h17.7V77.11h-17.7A16.45,16.45,0,0,0,240.46,81.68Zm1.14-78a18.57,18.57,0,0,1,22.27,0,11.41,11.41,0,0,1,0,18.28,18.57,18.57,0,0,1-22.27,0,11.42,11.42,0,0,1,0-18.28Z"/><path class="cls-1" d="M348.09,34.27a66.47,66.47,0,0,1,20.28,3,44.36,44.36,0,0,1,16.42,9.28,43.2,43.2,0,0,1,11,16q4,9.72,4,23.13v48.55a5.84,5.84,0,0,1-5.71,5.71H309.83V108.52h58.54V85.67q0-11.42-7.71-16a34.59,34.59,0,0,0-18-4.57,75.1,75.1,0,0,0-10.14.72A68,68,0,0,0,322.39,68l-6.85-28A102.88,102.88,0,0,1,348.09,34.27Z"/></g></g></svg>