<svg xmlns="http://www.w3.org/2000/svg" viewBox="0 0 414.99 103.57"><defs><style>.cls-1{fill:#fff;}</style></defs><g id="Layer_2" data-name="Layer 2"><g id="Layer_1-2" data-name="Layer 1"><path class="cls-1" d="M101.21,71.72a19.45,19.45,0,0,1,7.13-6.84A41.28,41.28,0,0,1,121,60.29a91.34,91.34,0,0,1,18.76-1.67q-.2-5.07-4-7.13a19.35,19.35,0,0,0-9.29-2.05,46.06,46.06,0,0,0-12.6,1.86,70.27,70.27,0,0,0-11,4L99,39.08a75.46,75.46,0,0,1,15.83-5.66,69,69,0,0,1,16.41-2.15,45.37,45.37,0,0,1,11.63,1.46,24,24,0,0,1,9.67,5A24.49,24.49,0,0,1,159.05,47a36.29,36.29,0,0,1,2.44,14.17V99.66a4,4,0,0,1-3.9,3.91h-43A15.67,15.67,0,0,1,99,87.94V80.12A16.53,16.53,0,0,1,101.21,71.72Zm38.79.39a52.21,52.21,0,0,0-6.06.39A27.69,27.69,0,0,0,127.69,74a13.84,13.84,0,0,0-5.08,3.23,7.89,7.89,0,0,0-2.15,5.86H140Zm53.21,30.29a3.75,3.75,0,0,1-2.74,1.17H176.79a4,4,0,0,1-3.9-3.91V23.25a26.25,26.25,0,0,1,2.05-10.94,18,18,0,0,1,5.57-7.13,22.57,22.57,0,0,1,8.21-3.81,41,41,0,0,1,10-1.17,55,55,0,0,1,10.85,1.07,96.06,96.06,0,0,1,10.26,2.64V23.45q-4.69-1.17-8.6-1.86a41.83,41.83,0,0,0-7-.68q-9.77,0-9.77,5.86V45h21.89V66.44H194.38V99.66A3.76,3.76,0,0,1,193.21,102.4ZM249,1.17a3.77,3.77,0,0,1,1.18,2.74V15.24h17a4,4,0,0,1,3.9,3.91v12.7a4,4,0,0,1-3.9,3.91h-17V70.15q0,7.44,3.9,10.46a15.49,15.49,0,0,0,9.77,3h2.25a7.11,7.11,0,0,0,2.25-.39L273,101.42a48.72,48.72,0,0,1-7.52,1.66,52.57,52.57,0,0,1-7.14.49q-12.9,0-21.3-8t-8.4-25.41V3.91a3.76,3.76,0,0,1,1.17-2.74A3.76,3.76,0,0,1,232.55,0h13.68A3.74,3.74,0,0,1,249,1.17Zm32.79,70.55a19.48,19.48,0,0,1,7.14-6.84,41.19,41.19,0,0,1,12.7-4.59,91.27,91.27,0,0,1,18.76-1.67q-.19-5.07-4-7.13a19.31,19.31,0,0,0-9.28-2.05,46,46,0,0,0-12.6,1.86,70,70,0,0,0-11,4l-3.9-16.22a75.26,75.26,0,0,1,15.83-5.66,69,69,0,0,1,16.41-2.15,45.43,45.43,0,0,1,11.63,1.46,24.05,24.05,0,0,1,9.67,5A24.49,24.49,0,0,1,339.6,47,36.29,36.29,0,0,1,342,61.17V99.66a4,4,0,0,1-3.91,3.91h-43a15.67,15.67,0,0,1-15.63-15.63V80.12A16.52,16.52,0,0,1,281.75,71.72Zm38.79.39a52.19,52.19,0,0,0-6.05.39A27.78,27.78,0,0,0,308.23,74a13.92,13.92,0,0,0-5.08,3.23A7.93,7.93,0,0,0,301,83.05h19.54ZM374.93,42c.52-.26,1.82-.94,3.91-2s4.49-2.24,7.23-3.42a87.37,87.37,0,0,1,8.5-3.12,26.68,26.68,0,0,1,7.91-1.37,14,14,0,0,1,8.89,2.83Q415,37.72,415,45.14V58.62a4,4,0,0,1-3.91,3.91H393.49V55.69a3.52,3.52,0,0,0-1.37-3.22,6,6,0,0,0-3.32-.88,14,14,0,0,0-3.81.59,40.89,40.89,0,0,0-4,1.36c-1.31.52-2.51,1.05-3.62,1.57a13.87,13.87,0,0,0-2.44,1.37V99.66a4,4,0,0,1-3.91,3.91H357.34a4,4,0,0,1-3.91-3.91V35.18a4,4,0,0,1,3.91-3.91h17.59Z"/><path class="cls-1" d="M37.51,0A65.12,65.12,0,0,1,57.38,2.94,43.45,43.45,0,0,1,73.48,12,42.29,42.29,0,0,1,84.25,27.71q3.93,9.52,3.92,22.68V98a5.74,5.74,0,0,1-5.59,5.6H0V72.78H57.38V50.39q0-11.2-7.56-15.68a33.86,33.86,0,0,0-17.63-4.48,73.84,73.84,0,0,0-9.94.7A67.68,67.68,0,0,0,12.32,33L5.6,5.6A101,101,0,0,1,37.51,0Z"/></g></g></svg>