<svg xmlns="http://www.w3.org/2000/svg" xmlns:xlink="http://www.w3.org/1999/xlink" viewBox="0 0 89.96 105.66"><defs><style>.cls-1{fill:url(#linear-gradient);}</style><linearGradient id="linear-gradient" x1="-10.76" y1="-18.98" x2="76.07" y2="118.77" gradientUnits="userSpaceOnUse"><stop offset="0" stop-color="#004996"/><stop offset="0.31" stop-color="#034c98"/><stop offset="0.56" stop-color="#0e549f"/><stop offset="0.8" stop-color="#1f61aa"/><stop offset="1" stop-color="#3472b8"/></linearGradient></defs><g id="Layer_2" data-name="Layer 2"><g id="Layer_1-2" data-name="Layer 1"><path class="cls-1" d="M38.27,0A66.46,66.46,0,0,1,58.54,3,44.28,44.28,0,0,1,75,12.28a43.22,43.22,0,0,1,11,16Q90,38,90,51.4V100a5.86,5.86,0,0,1-5.71,5.71H0V74.25H58.54V51.4q0-11.41-7.71-16a34.69,34.69,0,0,0-18-4.57,75.1,75.1,0,0,0-10.14.72A67.56,67.56,0,0,0,12.57,33.7l-6.86-28A102.94,102.94,0,0,1,38.27,0Z"/></g></g></svg>